<!-- Generated by IcoMoon.io -->
<svg version="1.1" xmlns="http://www.w3.org/2000/svg" width="20" height="20" viewBox="0 0 32 32">
<title>cancel-circle</title>
<path d="M16 6c-5.523 0-10 4.477-10 10s4.477 10 10 10 10-4.477 10-10-4.477-10-10-10zM16 24.125c-4.487 0-8.125-3.638-8.125-8.125s3.638-8.125 8.125-8.125 8.125 3.638 8.125 8.125-3.638 8.125-8.125 8.125z"></path>
<path d="M19.125 11l-3.125 3.125-3.125-3.125-1.875 1.875 3.125 3.125-3.125 3.125 1.875 1.875 3.125-3.125 3.125 3.125 1.875-1.875-3.125-3.125 3.125-3.125z"></path>
</svg>
